<mxfile host="app.diagrams.net" modified="2024-05-18T05:19:06.701Z" agent="Mozilla/5.0 (Windows NT 10.0; Win64; x64) AppleWebKit/537.36 (KHTML, like Gecko) Chrome/124.0.0.0 Safari/537.36 Edg/124.0.0.0" etag="E60ixUwld_FUHuHB_pL-" version="24.4.4" type="github">
  <diagram name="Page-1" id="xQLV07eBqESamvr4g-9W">
    <mxGraphModel dx="1505" dy="668" grid="1" gridSize="10" guides="1" tooltips="1" connect="1" arrows="1" fold="1" page="1" pageScale="1" pageWidth="850" pageHeight="1100" math="0" shadow="0">
      <root>
        <mxCell id="0" />
        <mxCell id="1" parent="0" />
        <mxCell id="cI4nOcUftlIpL_gw39D--1" value="" style="ellipse;html=1;shape=startState;fillColor=#000000;strokeColor=#ff0000;" vertex="1" parent="1">
          <mxGeometry x="10" y="130" width="30" height="30" as="geometry" />
        </mxCell>
        <mxCell id="cI4nOcUftlIpL_gw39D--2" value="" style="edgeStyle=orthogonalEdgeStyle;html=1;verticalAlign=bottom;endArrow=open;endSize=8;strokeColor=#ff0000;rounded=0;entryX=0;entryY=0.25;entryDx=0;entryDy=0;" edge="1" source="cI4nOcUftlIpL_gw39D--1" parent="1" target="cI4nOcUftlIpL_gw39D--3">
          <mxGeometry relative="1" as="geometry">
            <mxPoint x="95" y="140" as="targetPoint" />
          </mxGeometry>
        </mxCell>
        <mxCell id="cI4nOcUftlIpL_gw39D--21" style="edgeStyle=orthogonalEdgeStyle;rounded=0;orthogonalLoop=1;jettySize=auto;html=1;entryX=0;entryY=0.5;entryDx=0;entryDy=0;" edge="1" parent="1" source="cI4nOcUftlIpL_gw39D--3" target="cI4nOcUftlIpL_gw39D--4">
          <mxGeometry relative="1" as="geometry" />
        </mxCell>
        <mxCell id="cI4nOcUftlIpL_gw39D--3" value="&lt;b&gt;idle&lt;/b&gt;" style="html=1;align=center;verticalAlign=top;rounded=1;absoluteArcSize=1;arcSize=10;dashed=0;whiteSpace=wrap;" vertex="1" parent="1">
          <mxGeometry x="150" y="140" width="140" height="40" as="geometry" />
        </mxCell>
        <mxCell id="cI4nOcUftlIpL_gw39D--10" style="edgeStyle=orthogonalEdgeStyle;rounded=0;orthogonalLoop=1;jettySize=auto;html=1;entryX=0;entryY=0.5;entryDx=0;entryDy=0;" edge="1" parent="1" source="cI4nOcUftlIpL_gw39D--4" target="cI4nOcUftlIpL_gw39D--6">
          <mxGeometry relative="1" as="geometry">
            <Array as="points">
              <mxPoint x="370" y="240" />
              <mxPoint x="310" y="240" />
              <mxPoint x="310" y="360" />
            </Array>
          </mxGeometry>
        </mxCell>
        <mxCell id="cI4nOcUftlIpL_gw39D--22" style="edgeStyle=orthogonalEdgeStyle;rounded=0;orthogonalLoop=1;jettySize=auto;html=1;exitX=1;exitY=0.5;exitDx=0;exitDy=0;entryX=0;entryY=0.5;entryDx=0;entryDy=0;" edge="1" parent="1" source="cI4nOcUftlIpL_gw39D--4" target="cI4nOcUftlIpL_gw39D--5">
          <mxGeometry relative="1" as="geometry" />
        </mxCell>
        <mxCell id="cI4nOcUftlIpL_gw39D--4" value="Student Login" style="html=1;align=center;verticalAlign=top;rounded=1;absoluteArcSize=1;arcSize=10;dashed=0;whiteSpace=wrap;" vertex="1" parent="1">
          <mxGeometry x="340" y="140" width="140" height="40" as="geometry" />
        </mxCell>
        <mxCell id="cI4nOcUftlIpL_gw39D--5" value="Verifying Username &amp;amp; Password" style="html=1;align=center;verticalAlign=top;rounded=1;absoluteArcSize=1;arcSize=10;dashed=0;whiteSpace=wrap;" vertex="1" parent="1">
          <mxGeometry x="570" y="140" width="140" height="40" as="geometry" />
        </mxCell>
        <mxCell id="cI4nOcUftlIpL_gw39D--25" style="edgeStyle=orthogonalEdgeStyle;rounded=0;orthogonalLoop=1;jettySize=auto;html=1;exitX=1;exitY=0.5;exitDx=0;exitDy=0;entryX=0.75;entryY=0;entryDx=0;entryDy=0;" edge="1" parent="1" source="cI4nOcUftlIpL_gw39D--6" target="cI4nOcUftlIpL_gw39D--12">
          <mxGeometry relative="1" as="geometry">
            <Array as="points">
              <mxPoint x="530" y="470" />
              <mxPoint x="715" y="470" />
            </Array>
          </mxGeometry>
        </mxCell>
        <mxCell id="cI4nOcUftlIpL_gw39D--6" value="" style="shape=rhombus;html=1;labelPosition=right;align=left;verticalAlign=middle" vertex="1" parent="1">
          <mxGeometry x="385" y="320" width="145" height="120" as="geometry" />
        </mxCell>
        <mxCell id="cI4nOcUftlIpL_gw39D--7" value="" style="edgeStyle=elbowEdgeStyle;html=1;elbow=horizontal;align=right;verticalAlign=bottom;rounded=0;labelBackgroundColor=none;endArrow=open;endSize=12;exitX=0.5;exitY=0;exitDx=0;exitDy=0;entryX=0.5;entryY=1;entryDx=0;entryDy=0;" edge="1" target="cI4nOcUftlIpL_gw39D--4" parent="1" source="cI4nOcUftlIpL_gw39D--6">
          <mxGeometry relative="1" as="geometry">
            <mxPoint x="420" y="300" as="sourcePoint" />
            <mxPoint x="480" y="270" as="targetPoint" />
          </mxGeometry>
        </mxCell>
        <mxCell id="cI4nOcUftlIpL_gw39D--24" style="edgeStyle=orthogonalEdgeStyle;rounded=0;orthogonalLoop=1;jettySize=auto;html=1;entryX=1;entryY=0.5;entryDx=0;entryDy=0;" edge="1" parent="1" source="cI4nOcUftlIpL_gw39D--11" target="cI4nOcUftlIpL_gw39D--6">
          <mxGeometry relative="1" as="geometry">
            <Array as="points">
              <mxPoint x="660" y="380" />
            </Array>
          </mxGeometry>
        </mxCell>
        <mxCell id="cI4nOcUftlIpL_gw39D--11" value="Searching For Username &amp;amp; Password&amp;nbsp;" style="html=1;align=center;verticalAlign=top;rounded=1;absoluteArcSize=1;arcSize=10;dashed=0;whiteSpace=wrap;" vertex="1" parent="1">
          <mxGeometry x="530" y="300" width="140" height="40" as="geometry" />
        </mxCell>
        <mxCell id="cI4nOcUftlIpL_gw39D--26" style="edgeStyle=orthogonalEdgeStyle;rounded=0;orthogonalLoop=1;jettySize=auto;html=1;exitX=0;exitY=0.25;exitDx=0;exitDy=0;entryX=1;entryY=0.5;entryDx=0;entryDy=0;" edge="1" parent="1" source="cI4nOcUftlIpL_gw39D--12" target="cI4nOcUftlIpL_gw39D--13">
          <mxGeometry relative="1" as="geometry" />
        </mxCell>
        <mxCell id="cI4nOcUftlIpL_gw39D--12" value="Successful Login" style="html=1;align=center;verticalAlign=top;rounded=1;absoluteArcSize=1;arcSize=10;dashed=0;whiteSpace=wrap;" vertex="1" parent="1">
          <mxGeometry x="610" y="560" width="140" height="40" as="geometry" />
        </mxCell>
        <mxCell id="cI4nOcUftlIpL_gw39D--27" style="edgeStyle=orthogonalEdgeStyle;rounded=0;orthogonalLoop=1;jettySize=auto;html=1;exitX=0;exitY=0.5;exitDx=0;exitDy=0;entryX=1;entryY=0.5;entryDx=0;entryDy=0;" edge="1" parent="1" source="cI4nOcUftlIpL_gw39D--13" target="cI4nOcUftlIpL_gw39D--14">
          <mxGeometry relative="1" as="geometry" />
        </mxCell>
        <mxCell id="cI4nOcUftlIpL_gw39D--13" value="Searching the Course Category" style="html=1;align=center;verticalAlign=top;rounded=1;absoluteArcSize=1;arcSize=10;dashed=0;whiteSpace=wrap;" vertex="1" parent="1">
          <mxGeometry x="425" y="560" width="140" height="40" as="geometry" />
        </mxCell>
        <mxCell id="cI4nOcUftlIpL_gw39D--28" style="edgeStyle=orthogonalEdgeStyle;rounded=0;orthogonalLoop=1;jettySize=auto;html=1;entryX=1;entryY=0.5;entryDx=0;entryDy=0;" edge="1" parent="1" source="cI4nOcUftlIpL_gw39D--14" target="cI4nOcUftlIpL_gw39D--15">
          <mxGeometry relative="1" as="geometry" />
        </mxCell>
        <mxCell id="cI4nOcUftlIpL_gw39D--14" value="Searching the Course" style="html=1;align=center;verticalAlign=top;rounded=1;absoluteArcSize=1;arcSize=10;dashed=0;whiteSpace=wrap;" vertex="1" parent="1">
          <mxGeometry x="245" y="560" width="140" height="40" as="geometry" />
        </mxCell>
        <mxCell id="cI4nOcUftlIpL_gw39D--47" style="edgeStyle=orthogonalEdgeStyle;rounded=0;orthogonalLoop=1;jettySize=auto;html=1;exitX=0.5;exitY=0;exitDx=0;exitDy=0;entryX=0.5;entryY=1;entryDx=0;entryDy=0;" edge="1" parent="1" source="cI4nOcUftlIpL_gw39D--15" target="cI4nOcUftlIpL_gw39D--16">
          <mxGeometry relative="1" as="geometry" />
        </mxCell>
        <mxCell id="cI4nOcUftlIpL_gw39D--15" value="Enrolling the Course" style="html=1;align=center;verticalAlign=top;rounded=1;absoluteArcSize=1;arcSize=10;dashed=0;whiteSpace=wrap;" vertex="1" parent="1">
          <mxGeometry x="25" y="560" width="140" height="40" as="geometry" />
        </mxCell>
        <mxCell id="cI4nOcUftlIpL_gw39D--29" style="edgeStyle=orthogonalEdgeStyle;rounded=0;orthogonalLoop=1;jettySize=auto;html=1;entryX=0.5;entryY=0;entryDx=0;entryDy=0;" edge="1" parent="1" source="cI4nOcUftlIpL_gw39D--16" target="cI4nOcUftlIpL_gw39D--17">
          <mxGeometry relative="1" as="geometry">
            <Array as="points">
              <mxPoint x="130" y="350" />
              <mxPoint x="255" y="350" />
            </Array>
          </mxGeometry>
        </mxCell>
        <mxCell id="cI4nOcUftlIpL_gw39D--46" style="edgeStyle=orthogonalEdgeStyle;rounded=0;orthogonalLoop=1;jettySize=auto;html=1;entryX=0.5;entryY=1;entryDx=0;entryDy=0;" edge="1" parent="1" source="cI4nOcUftlIpL_gw39D--16" target="cI4nOcUftlIpL_gw39D--31">
          <mxGeometry relative="1" as="geometry" />
        </mxCell>
        <mxCell id="cI4nOcUftlIpL_gw39D--16" value="Logout" style="html=1;align=center;verticalAlign=top;rounded=1;absoluteArcSize=1;arcSize=10;dashed=0;whiteSpace=wrap;" vertex="1" parent="1">
          <mxGeometry x="10" y="480" width="140" height="40" as="geometry" />
        </mxCell>
        <mxCell id="cI4nOcUftlIpL_gw39D--30" style="edgeStyle=orthogonalEdgeStyle;rounded=0;orthogonalLoop=1;jettySize=auto;html=1;entryX=0.5;entryY=0;entryDx=0;entryDy=0;exitX=1;exitY=0.5;exitDx=0;exitDy=0;" edge="1" parent="1" source="cI4nOcUftlIpL_gw39D--17" target="cI4nOcUftlIpL_gw39D--13">
          <mxGeometry relative="1" as="geometry">
            <Array as="points">
              <mxPoint x="310" y="490" />
              <mxPoint x="495" y="490" />
            </Array>
          </mxGeometry>
        </mxCell>
        <mxCell id="cI4nOcUftlIpL_gw39D--17" value="" style="shape=rhombus;html=1;labelPosition=right;align=left;verticalAlign=middle" vertex="1" parent="1">
          <mxGeometry x="200" y="430" width="110" height="90" as="geometry" />
        </mxCell>
        <mxCell id="cI4nOcUftlIpL_gw39D--31" value="" style="ellipse;html=1;shape=endState;fillColor=strokeColor;" vertex="1" parent="1">
          <mxGeometry x="40" y="340" width="30" height="30" as="geometry" />
        </mxCell>
        <mxCell id="cI4nOcUftlIpL_gw39D--32" value="Stop" style="text;html=1;align=center;verticalAlign=middle;whiteSpace=wrap;rounded=0;" vertex="1" parent="1">
          <mxGeometry x="20" y="311" width="60" height="30" as="geometry" />
        </mxCell>
        <mxCell id="cI4nOcUftlIpL_gw39D--33" value="Continue" style="text;html=1;align=center;verticalAlign=middle;whiteSpace=wrap;rounded=0;" vertex="1" parent="1">
          <mxGeometry x="225" y="470" width="60" height="30" as="geometry" />
        </mxCell>
        <mxCell id="cI4nOcUftlIpL_gw39D--34" value="Checking&lt;div&gt;Validity&lt;/div&gt;" style="text;html=1;align=center;verticalAlign=middle;whiteSpace=wrap;rounded=0;" vertex="1" parent="1">
          <mxGeometry x="425" y="370" width="60" height="30" as="geometry" />
        </mxCell>
      </root>
    </mxGraphModel>
  </diagram>
</mxfile>
